<?xml version="1.0" encoding="UTF-8" standalone="no"?>
<!-- Created with Inkscape (http://www.inkscape.org/) -->

<svg
   width="31.748245mm"
   height="24.467731mm"
   viewBox="0 0 31.748245 24.467731"
   version="1.1"
   id="svg8615"
   inkscape:version="1.1.2 (b8e25be8, 2022-02-05)"
   sodipodi:docname="drawing-logo-single.svg"
   xmlns:inkscape="http://www.inkscape.org/namespaces/inkscape"
   xmlns:sodipodi="http://sodipodi.sourceforge.net/DTD/sodipodi-0.dtd"
   xmlns="http://www.w3.org/2000/svg"
   xmlns:svg="http://www.w3.org/2000/svg">
  <sodipodi:namedview
     id="namedview8617"
     pagecolor="#ffffff"
     bordercolor="#666666"
     borderopacity="1.0"
     inkscape:pageshadow="2"
     inkscape:pageopacity="0.0"
     inkscape:pagecheckerboard="0"
     inkscape:document-units="mm"
     showgrid="false"
     fit-margin-top="0"
     fit-margin-left="0"
     fit-margin-right="0"
     fit-margin-bottom="0"
     inkscape:zoom="0.64052329"
     inkscape:cx="-252.13759"
     inkscape:cy="91.331574"
     inkscape:window-width="1312"
     inkscape:window-height="969"
     inkscape:window-x="0"
     inkscape:window-y="25"
     inkscape:window-maximized="0"
     inkscape:current-layer="layer1" />
  <defs
     id="defs8612" />
  <g
     inkscape:label="Layer 1"
     inkscape:groupmode="layer"
     id="layer1"
     transform="translate(-48.152303,-129.45026)">
    <path
       style="fill:#383131;fill-opacity:1;stroke-width:0.0240931"
       d="m 62.382918,153.89107 c -1.540949,-0.17129 -2.924062,-0.98228 -4.336759,-1.5743 -1.262793,-0.66518 -2.679163,-1.24425 -3.550847,-2.42999 -0.444118,-2.53402 -0.666049,-5.22571 -1.029631,-7.77657 -0.363302,-2.93674 -0.74871,-5.88159 -1.113692,-8.81102 7.729397,-3e-4 16.286239,0.005 23.262302,0.008 -0.134943,1.15038 -0.305807,2.41475 -0.365745,3.61066 -0.554634,4.23866 -1.063042,8.48693 -1.618369,12.72745 -0.561218,1.27741 -2.042738,1.79504 -3.176068,2.45428 -1.476033,0.66352 -2.936654,1.45883 -4.532967,1.76924 -1.176245,0.0786 -2.360174,0.0449 -3.538224,0.0219 z M 48.897336,131.78065 c -1.221541,-0.36385 -0.8521,-2.5163 0.462631,-2.31744 l 29.675627,8.5e-4 c 1.224625,0.21004 1.120089,2.33587 -0.131346,2.35154 -9.936036,0.0482 -19.872469,0.0205 -29.80868,0.0331 -0.06608,-0.0227 -0.132155,-0.0454 -0.198232,-0.068 z"
       id="path8098"
       sodipodi:nodetypes="scccccccccssccccccc" />
    <path
       style="fill:#ef0033;fill-opacity:1;stroke-width:0.0105955"
       d="m 62.674051,146.54258 c -0.416933,-0.043 -0.849342,-0.15873 -1.185365,-0.41585 -0.29494,-0.37348 0.129818,-0.71798 0.380349,-0.96399 1.678187,-1.69307 3.356778,-3.38629 5.063063,-5.05104 0.323055,-0.42647 0.860274,-0.0512 0.918015,0.3804 0.391054,1.07429 0.06639,2.27784 -0.550859,3.19964 -0.729619,1.09653 -1.737142,2.04887 -2.958239,2.56972 -0.527222,0.22626 -1.094874,0.31867 -1.666964,0.28112 z m -2.014623,-1.3503 c -0.40443,-0.13852 -0.470164,-0.63178 -0.574826,-0.9923 -0.235734,-1.24422 0.362819,-2.47596 1.135883,-3.41572 0.795739,-0.91164 1.757468,-1.74002 2.941539,-2.08233 0.755383,-0.22688 1.613852,-0.18238 2.308613,0.20839 0.390971,0.26351 0.111778,0.73102 -0.181408,0.93727 -1.726513,1.76157 -3.467165,3.50989 -5.234515,5.23048 -0.09808,0.10556 -0.257088,0.14107 -0.395286,0.11421 z"
       id="path8100"
       sodipodi:nodetypes="sssssssssscsssssssssssssssssssss" />
    <path
       style="fill:#383131;fill-opacity:1;stroke-width:0.0240931"
       d="m 62.382918,153.89107 c -1.540949,-0.17129 -2.924062,-0.98228 -4.336759,-1.5743 -1.262793,-0.66518 -2.679163,-1.24425 -3.550847,-2.42999 -0.444118,-2.53402 -0.666049,-5.22571 -1.029631,-7.77657 -0.363302,-2.93674 -0.74871,-5.88159 -1.113692,-8.81102 7.729397,-3e-4 16.286239,0.005 23.262302,0.008 -0.134943,1.15038 -0.305807,2.41475 -0.365745,3.61066 -0.554634,4.23866 -1.063042,8.48693 -1.618369,12.72745 -0.561218,1.27741 -2.042738,1.79504 -3.176068,2.45428 -1.476033,0.66352 -2.936654,1.45883 -4.532967,1.76924 -1.176245,0.0786 -2.360174,0.0449 -3.538224,0.0219 z M 48.897336,131.78065 c -1.221541,-0.36385 -0.8521,-2.5163 0.462631,-2.31744 l 29.675627,8.5e-4 c 1.224625,0.21004 1.120089,2.33587 -0.131346,2.35154 -9.936036,0.0482 -19.872469,0.0205 -29.80868,0.0331 -0.06608,-0.0227 -0.132155,-0.0454 -0.198232,-0.068 z"
       id="path8106"
       sodipodi:nodetypes="scccccccccssccccccc" />
    <path
       style="fill:#ef0033;fill-opacity:1;stroke-width:0.0105955"
       d="m 62.674051,146.54258 c -0.416933,-0.043 -0.849342,-0.15873 -1.185365,-0.41585 -0.29494,-0.37348 0.129818,-0.71798 0.380349,-0.96399 1.678187,-1.69307 3.356778,-3.38629 5.063063,-5.05104 0.323055,-0.42647 0.860274,-0.0512 0.918015,0.3804 0.391054,1.07429 0.06639,2.27784 -0.550859,3.19964 -0.729619,1.09653 -1.737142,2.04887 -2.958239,2.56972 -0.527222,0.22626 -1.094874,0.31867 -1.666964,0.28112 z m -2.014623,-1.3503 c -0.40443,-0.13852 -0.470164,-0.63178 -0.574826,-0.9923 -0.235734,-1.24422 0.362819,-2.47596 1.135883,-3.41572 0.795739,-0.91164 1.757468,-1.74002 2.941539,-2.08233 0.755383,-0.22688 1.613852,-0.18238 2.308613,0.20839 0.390971,0.26351 0.111778,0.73102 -0.181408,0.93727 -1.726513,1.76157 -3.467165,3.50989 -5.234515,5.23048 -0.09808,0.10556 -0.257088,0.14107 -0.395286,0.11421 z"
       id="path8108"
       sodipodi:nodetypes="sssssssssscsssssssssssssssssssss" />
    <path
       style="fill:#383131;fill-opacity:1;stroke-width:0.0240931"
       d="m 62.382918,153.89107 c -1.540949,-0.17129 -2.924062,-0.98228 -4.336759,-1.5743 -1.262793,-0.66518 -2.679163,-1.24425 -3.550847,-2.42999 -0.444118,-2.53402 -0.666049,-5.22571 -1.029631,-7.77657 -0.363302,-2.93674 -0.74871,-5.88159 -1.113692,-8.81102 7.729397,-3e-4 16.286239,0.005 23.262302,0.008 -0.134943,1.15038 -0.305807,2.41475 -0.365745,3.61066 -0.554634,4.23866 -1.063042,8.48693 -1.618369,12.72745 -0.561218,1.27741 -2.042738,1.79504 -3.176068,2.45428 -1.476033,0.66352 -2.936654,1.45883 -4.532967,1.76924 -1.176245,0.0786 -2.360174,0.0449 -3.538224,0.0219 z M 48.897336,131.78065 c -1.221541,-0.36385 -0.8521,-2.5163 0.462631,-2.31744 l 29.675627,8.5e-4 c 1.224625,0.21004 1.120089,2.33587 -0.131346,2.35154 -9.936036,0.0482 -19.872469,0.0205 -29.80868,0.0331 -0.06608,-0.0227 -0.132155,-0.0454 -0.198232,-0.068 z"
       id="path8114"
       sodipodi:nodetypes="scccccccccssccccccc" />
    <path
       style="fill:#ef0033;fill-opacity:1;stroke-width:0.0105955"
       d="m 62.674051,146.54258 c -0.416933,-0.043 -0.849342,-0.15873 -1.185365,-0.41585 -0.29494,-0.37348 0.129818,-0.71798 0.380349,-0.96399 1.678187,-1.69307 3.356778,-3.38629 5.063063,-5.05104 0.323055,-0.42647 0.860274,-0.0512 0.918015,0.3804 0.391054,1.07429 0.06639,2.27784 -0.550859,3.19964 -0.729619,1.09653 -1.737142,2.04887 -2.958239,2.56972 -0.527222,0.22626 -1.094874,0.31867 -1.666964,0.28112 z m -2.014623,-1.3503 c -0.40443,-0.13852 -0.470164,-0.63178 -0.574826,-0.9923 -0.235734,-1.24422 0.362819,-2.47596 1.135883,-3.41572 0.795739,-0.91164 1.757468,-1.74002 2.941539,-2.08233 0.755383,-0.22688 1.613852,-0.18238 2.308613,0.20839 0.390971,0.26351 0.111778,0.73102 -0.181408,0.93727 -1.726513,1.76157 -3.467165,3.50989 -5.234515,5.23048 -0.09808,0.10556 -0.257088,0.14107 -0.395286,0.11421 z"
       id="path8116"
       sodipodi:nodetypes="sssssssssscsssssssssssssssssssss" />
    <path
       style="fill:#383131;fill-opacity:1;stroke-width:0.0240931"
       d="m 62.382918,153.89107 c -1.540949,-0.17129 -2.924062,-0.98228 -4.336759,-1.5743 -1.262793,-0.66518 -2.679163,-1.24425 -3.550847,-2.42999 -0.444118,-2.53402 -0.666049,-5.22571 -1.029631,-7.77657 -0.363302,-2.93674 -0.74871,-5.88159 -1.113692,-8.81102 7.729397,-3e-4 16.286239,0.005 23.262302,0.008 -0.134943,1.15038 -0.305807,2.41475 -0.365745,3.61066 -0.554634,4.23866 -1.063042,8.48693 -1.618369,12.72745 -0.561218,1.27741 -2.042738,1.79504 -3.176068,2.45428 -1.476033,0.66352 -2.936654,1.45883 -4.532967,1.76924 -1.176245,0.0786 -2.360174,0.0449 -3.538224,0.0219 z M 48.897336,131.78065 c -1.221541,-0.36385 -0.8521,-2.5163 0.462631,-2.31744 l 29.675627,8.5e-4 c 1.224625,0.21004 1.120089,2.33587 -0.131346,2.35154 -9.936036,0.0482 -19.872469,0.0205 -29.80868,0.0331 -0.06608,-0.0227 -0.132155,-0.0454 -0.198232,-0.068 z"
       id="path8122"
       sodipodi:nodetypes="scccccccccssccccccc" />
    <path
       style="fill:#fefcf9;fill-opacity:1;stroke-width:0.0105955"
       d="m 62.674051,146.54258 c -0.416933,-0.043 -0.849342,-0.15873 -1.185365,-0.41585 -0.29494,-0.37348 0.129818,-0.71798 0.380349,-0.96399 1.678187,-1.69307 3.356778,-3.38629 5.063063,-5.05104 0.323055,-0.42647 0.860274,-0.0512 0.918015,0.3804 0.391054,1.07429 0.06639,2.27784 -0.550859,3.19964 -0.729619,1.09653 -1.737142,2.04887 -2.958239,2.56972 -0.527222,0.22626 -1.094874,0.31867 -1.666964,0.28112 z m -2.014623,-1.3503 c -0.40443,-0.13852 -0.470164,-0.63178 -0.574826,-0.9923 -0.235734,-1.24422 0.362819,-2.47596 1.135883,-3.41572 0.795739,-0.91164 1.757468,-1.74002 2.941539,-2.08233 0.755383,-0.22688 1.613852,-0.18238 2.308613,0.20839 0.390971,0.26351 0.111778,0.73102 -0.181408,0.93727 -1.726513,1.76157 -3.467165,3.50989 -5.234515,5.23048 -0.09808,0.10556 -0.257088,0.14107 -0.395286,0.11421 z"
       id="path8124"
       sodipodi:nodetypes="sssssssssscsssssssssssssssssssss" />
  </g>
</svg>
